<svg viewBox="10 10 207 142" xmlns="http://www.w3.org/2000/svg" xmlns:xlink="http://www.w3.org/1999/xlink"><linearGradient id="a" gradientUnits="userSpaceOnUse" x1="198.516" x2="10.518" y1="135.206" y2="-8.094"><stop offset="0" stop-color="#1b2c65"/><stop offset=".112" stop-color="#192f68"/><stop offset=".255" stop-color="#0c3871"/><stop offset=".416" stop-color="#004680"/><stop offset=".59" stop-color="#005b97"/><stop offset=".773" stop-color="#0076b6"/><stop offset=".963" stop-color="#0098dc"/><stop offset="1" stop-color="#009fe3"/></linearGradient><path d="m203.78 11.9h-180.76c-6.72 0-12.16 5.45-12.16 12.17v113.9c.01 6.47 5.05 11.74 11.43 12.13l.11.01h182.02l.1-.01c6.37-.39 11.42-5.65 11.42-12.13v-113.9c0-6.72-5.44-12.17-12.16-12.17z" fill="#fff"/><path d="m14.53 129.44h197.75v8.5h-197.75z" fill="#008bcb"/><path d="m14.53 120.79h197.75v8.65h-197.75z" fill="#fdc600"/><path d="m22.51 146.44h181.79c4.45-.27 7.98-3.95 7.98-8.47v-.03h-197.75v.03c0 4.52 3.53 8.2 7.98 8.47z" fill="#e42313"/><path d="m203.78 15.56h-180.76c-4.69 0-8.49 3.81-8.49 8.5v96.74h197.75v-96.73c0-4.7-3.8-8.51-8.5-8.51z" fill="url(#a)"/><g fill="#fff"><path d="m87.84 64.91c0-5.61-2.96-8.87-5.3-8.87-1.32 0-2.34.42-3.2 1.39-1.58 1.78-2.19 3.92-2.19 7.63 0 2.96.21 4.89 1.58 7.08.86 1.38 1.99 2.2 4.02 2.2 3.35-.01 5.09-4.24 5.09-9.43m2.7-7.9c2.39 2.4 3.52 5.05 3.52 8.05 0 2.86-1.23 5.61-3.16 7.75-2.09 2.34-5.15 3.67-8.55 3.67-3.22 0-5.96-.92-8.26-3.67-2.24-2.65-2.75-4.79-2.75-7.9 0-2.45 1.23-6.01 4.28-8.45 2.5-2.05 5.15-2.45 7.23-2.45 3.41-.01 5.96 1.32 7.69 3"/><path d="m147.17 61.14c1.07 0 1.68-.31 1.68-.71 0-1.53-.51-4.53-3.16-4.53-2.5 0-4.03 1.84-4.69 5.25h6.17zm-6.31 3.41c0 5.2 3.72 8.25 6.62 8.25 3.16 0 5.09-1.33 6.17-2.96.21-.36.41-.36.62-.25l.75.45c.26.15.36.36 0 1.02-1.07 1.94-3.67 5.4-9.27 5.4-3.26 0-5.55-.71-7.34-2.75-2.34-2.71-2.86-5.25-2.86-8.41 0-2.79.32-4.69 2.5-7.54 2.14-2.75 4.43-3.77 8.86-3.77 5.81 0 7.7 6.07 7.7 8.16 0 .76-.51.81-1.43.81h-12.33v1.59z"/><path d="m160.66 62.77c0-2.35-.4-3.16-1.93-3.97l-.91-.51c-.3-.1-.4-.2-.4-.41v-.3c0-.2.1-.3.4-.46l6.16-2.91c.31-.1.51-.21.82-.21s.4.31.46.62l.46 3.66h.21c1.73-2.85 3.87-4.59 6.11-4.59 1.63 0 2.65 1.13 2.65 2.55 0 1.43-1.43 2.75-2.75 2.75-.72 0-1.33-.2-1.74-.4-.4-.31-.91-.41-1.42-.41-.61 0-1.52.41-2.14 1.48-.41.71-.62 1.83-.62 2.5v9.83c0 1.63.41 2.14 1.43 2.14h2.25c.3 0 .4.1.4.35v1.18c0 .25-.1.36-.36.36-.36 0-2.6-.16-6.32-.16-3.56 0-5.55.16-5.95.16-.26 0-.36-.1-.36-.36v-1.12c0-.31.1-.41.45-.41h1.79c.81 0 1.32-.4 1.32-1.38v-9.98z"/><path d="m176.26 69.45c-.05-.21 0-.36.15-.41l.97-.3c.21-.05.36-.05.46.15l1.68 2.85c.92 1.54 1.89 2.74 4.39 2.74 1.99 0 3.62-1.21 3.62-3.1 0-2.04-1.33-2.96-4.89-3.97-3.46-1.02-6.22-2.75-6.22-6.37 0-2.24.82-4.07 2.6-5.35 1.78-1.22 3.21-1.68 5.3-1.68 2.5 0 4.03.62 4.95 1.12.76.4.91.61.96.91l.67 3.48c.04.2.04.46-.05.56l-.97.46c-.15.05-.31 0-.41-.21l-2.47-2.76c-.61-.66-1.53-1.57-3.2-1.57-1.89 0-3.52 1.12-3.52 2.9 0 2.09 1.53 2.71 4.59 3.51 2.35.61 3.78 1.22 5.1 2.65 1.12 1.12 1.52 2.35 1.52 4.08 0 4.28-3.47 7.33-8.5 7.33-2.71 0-4.94-.87-5.51-1.32-.2-.21-.35-.36-.4-.56z"/><path d="m133.39 74.13h-2.04c-.51 0-.72-.4-.81-1.33-.11-.61-.11-2.45-.11-4.39v-5.49c0-4.23 0-7.49.11-8.3.05-.41-.11-.62-.41-.62s-.71.11-1.22.31c-.87.35-5.91 2.14-6.62 2.44-.26.1-.36.21-.36.41v.57c0 .2.05.35.51.45 2.34.62 2.65 1.63 2.65 3.16v7.19c0 1.42-.05 3.05-.1 4.58-.05.82-.31 1.02-.81 1.02 0 0-.37.08-2.52.08-2.17 0-2.75-.08-2.75-.08-1.12 0-1.21-.71-1.32-1.64-.1-1.52-.1-6.72-.1-9.06v-7.34c0-2.8.1-13.4.21-16.15 0-.71-.21-.92-.51-.92-.21 0-.51.1-1.12.3-1.64 1.02-5.61 2.34-7.64 2.96-.32.1-.41.3-.41.4v.61c0 .22 0 .31.31.42l1.02.3c1.63.51 2.5 1.33 2.6 3.06.1 1.32.21 5.7.21 9.27v15.96c0 1.43-.77 1.83-1.27 1.83 0 0-.77.08-2.63.08-1.87 0-2.6-.08-2.6-.08-1.13 0-1.23-.71-1.33-1.64-.1-1.52-.1-6.72-.1-9.06v-7.34c0-2.8.1-13.4.2-16.15 0-.71-.2-.92-.5-.92-.21 0-.51.1-1.12.3-1.63 1.02-5.6 2.34-7.64 2.96-.31.1-.41.3-.41.4v.61c0 .22 0 .31.31.42l1.01.3c1.63.51 2.49 1.33 2.6 3.06.11 1.32.21 5.7.21 9.27v15.96c0 1.43-.76 1.83-1.27 1.83h-1.94c-.6 0-.71.1-.71.41v.96c0 .3.1.51.41.51.2 0 9.97-.09 19.58-.09 9.27 0 18.38.09 18.58.09.31 0 .41-.21.41-.51v-1.03c-.05-.24-.16-.34-.56-.34"/><path d="m68.57 68.54c-.33-.32-.92-.84-.96-.89-.06-.06-.24-.01-.29.06-2.26 2.87-6.47 5.35-11.74 5.35-2.45 0-5.4-.41-8.76-3.98-3.77-4.08-4.69-10.09-4.69-13.25 0-7.33 3.37-14.67 11.51-14.67 3.98 0 6.63 1.63 8.87 3.77 2.13 2.24 3.36 4.78 3.97 6.62.15.41.3.61.55.52l.97-.31c.21-.05.26-.21.21-.52-.19-1.52-1.21-9.67-1.21-10.57 0-.72-.1-.82-.71-.82s-.72 0-.81.31l-.41 1.32c-.1.4-.3.4-1.02 0-1.83-1.01-5.6-2.45-10.29-2.45-6.11 0-10.49 2.45-13.25 5.4-3.57 3.87-5.2 8.66-5.2 13.65 0 4.49 1.73 10.39 5.5 13.76 3.17 2.85 6.83 4.79 13.35 4.79 6.71 0 11.39-3.59 14.48-7.61.06-.08.08-.34-.07-.48"/><path d="m130.25 47.45c0 1.71-1.39 3.1-3.11 3.1s-3.11-1.39-3.11-3.1 1.39-3.11 3.11-3.11 3.11 1.4 3.11 3.11"/><path d="m37.45 96.45v-11.42h1.7v11.43h-1.7z"/><path d="m53.16 96.45h-1.1l-6.74-8.56v8.56h-1.67v-11.42h1.5l6.57 8.35v-8.12-.23h1.67v11.43h-.23z"/><path d="m60.69 96.45v-9.82h-3.69v-1.6h9.08v1.6h-3.68v9.59.23z"/><path d="m69.69 96.45v-11.42h8.39v.23 1.13.23h-6.69v3.29h5.98v1.59h-5.98v3.38h6.77v1.59h-8.47z"/><path d="m104.53 96.45h-1.1l-6.73-8.55v8.56h-1.67v-11.43h1.5l6.56 8.35v-8.12-.23h1.67v11.43h-.23z"/><path d="m118.12 96.45-1.28-2.9h-5.67l-1.3 2.9h-1.78l5.21-11.5h1.46l5.21 11.5zm-6.26-4.47h4.29l-2.14-4.8z"/><path d="m124.78 96.45v-9.82h-3.68v-1.61h9.08v1.61h-3.68v9.59.23z"/><path d="m133.9 96.45v-11.42h1.7v11.43h-1.7z"/><path d="m164.68 96.45h-1.1l-6.74-8.55v8.55h-1.67v-11.42h1.5l6.56 8.35v-8.12-.23h1.67v11.42z"/><path d="m178.27 96.45-1.29-2.9h-5.67l-1.3 2.9h-1.78l5.21-11.5h1.46l5.21 11.5zm-6.27-4.47h4.29l-2.13-4.8z"/><path d="m183.43 96.45v-11.2-.23h1.7v9.82h6.17v1.6h-7.87z"/><path d="m86.78 90.62h-3.14v-3.99h3.15c1.71.02 2.56.73 2.57 1.95.01 1.27-1 2.02-2.58 2.04zm1.5 1.27c1.61-.4 2.81-1.54 2.81-3.36 0-2.12-1.71-3.5-4.19-3.5h-4.95v11.43h1.7v-4.26h2.79l3.18 4.26h2.1z"/><path d="m145.45 95.04c-2.37 0-4.09-1.92-4.09-4.31.01-2.4 1.69-4.28 4.06-4.28s4.09 1.92 4.09 4.31-1.68 4.27-4.06 4.28zm0-10.2c-3.47.01-5.83 2.77-5.84 5.92.01 3.15 2.34 5.88 5.81 5.88 3.47-.01 5.83-2.76 5.84-5.92-.01-3.15-2.34-5.87-5.81-5.88z"/></g></svg>