<svg height="378" viewBox="-.94580865 -.94580865 90.6291203 33.4185723" width="1024" xmlns="http://www.w3.org/2000/svg"><g fill="#0af"><path d="m88.7375 12.74c-11.8913-7.9375-27.4-12.74-44.3675-12.74s-32.4775 4.8025-44.37 12.74c11.8262-3.9312 25.6525-6.3712 44.37-6.3712s32.5425 2.44 44.3675 6.3712" fill-rule="evenodd"/><path d="m10.8906 16.519c-5.8475 0-10.0781 2.9126-10.0781 7.6738 0 6.7525 9.9361 8.8128 17.2149 6.3028.69-.2363 1.3172-.7327 1.1172-1.5039-.1763-.6838-.7348-.9442-1.5723-.7617-5.8938 1.2687-12.6367-.086-12.6367-4.2559 0-3.1513 2.9208-4.4329 5.2246-4.6191 2.4137-.1925 4.3016.3147 5.2754 1.3222.6075.6313.4373 1.4893-.7539 1.5606-1.0975.065-3.1574.131-4.8711.1972-.9738.035-1.4922.5546-1.4922 1.2559 0 .5537.4151 1.1923 1.5351 1.1973 1.6038.01 5.6807.031 7.7032.037 1.335 0 1.9921-.745 1.9921-2.2813 0-2.4337-2.2057-6.125-8.6582-6.125zm40.8321 0c-6.0625 0-10.9239 2.8941-10.9239 7.5703 0 4.9913 4.8434 7.4336 10.8809 7.4336 6.7438 0 10.0274-3.6694 10.0274-6.8769 0-1.6338-.8305-2.2578-2.2305-2.2578-1.335 0-5.4524.032-8.0899.039-1.2787 0-1.5976.6903-1.5976 1.2578 0 .495.3433 1.136 1.5371 1.1973 1.8187.097 4.1298.2028 5.1973.2578 1.4375.074 1.455.8128.9687 1.4453-.975 1.2688-3.3493 2.1016-5.8105 2.1016-3.22 0-6.7618-1.8319-6.7618-4.7344 0-2.7225 3.0311-5.7233 12.0411-4.457.79.1112 1.5686-.032 1.7636-.7637.2063-.78-.2997-1.2801-1.3222-1.5488-2.0413-.5375-3.901-.6641-5.6797-.6641zm13.6406 0c-1.7612 0-2.2752 1.3789-2.2539 2.2227 0 .1575.02.5947.045 1.1347 0 .1238.1162.2382.2637.2207l4.0039-.6503c.1275-.025.1891-.1195.1953-.2207.01-.1875.015-.3815.018-.4727.023-.815-.5015-2.2344-2.2715-2.2344zm13.9043 0c-5.8475 0-10.0781 2.9126-10.0781 7.6738 0 6.7525 9.9368 8.8128 17.2168 6.3028.69-.2363 1.3152-.7327 1.1152-1.5039-.175-.6838-.7348-.9442-1.5723-.7617-5.8937 1.2687-12.6367-.086-12.6367-4.2559 0-3.1513 2.9221-4.4329 5.2246-4.6191 2.4138-.1925 4.3029.3147 5.2754 1.3222.6063.6313.4386 1.4893-.7539 1.5606-1.0987.065-3.1561.131-4.8711.1972-.9725.035-1.4941.5546-1.4941 1.2559 0 .5537.4203 1.1923 1.539 1.1973 1.6038.01 5.6787.031 7.7012.037 1.335 0 1.9942-.745 1.9942-2.2813 0-2.4337-2.2065-6.125-8.6602-6.125zm-55.5703.3457c-1.135 0-2.2246.7026-2.2246 2.4239v10.666c0 .8312.5871 1.3613 1.2871 1.3613.7725 0 1.2728-.5137 1.3828-1.2637 0 0 .8252-5.0822.9277-5.6484.1163-.6588.2205-1.1756.8555-1.3731.5763-.1787 1.1184.1553 1.9297.8653.7987.6975 7.5644 6.8066 7.5644 6.8066.5175.4375.8945.6133 1.627.6133.6637 0 1.8711-.2727 1.8711-2.3027v-10.6231c0-.9875-.6098-1.5254-1.3535-1.5254-.8725 0-1.3186.7098-1.4336 1.5723-.1288.955-.631 4.2669-.7422 5.1094-.067.5037-.1043 1.0298-.5918 1.2461-.4888.2162-1.0836-.1144-1.5898-.5469-.5088-.4313-8.0215-6.8262-8.0215-6.8262-.43-.3775-.9721-.5547-1.4883-.5547zm43.5508 4.0254-3.836.6211c-.1125.024-.1944.1173-.1894.2285.1275 3.68.476 6.734.5722 7.8028.1263 1.3812.8411 1.7734 1.5586 1.7734.6863 0 1.416-.3592 1.541-1.7617.1063-1.18.455-4.8226.625-8.4239.01-.1887-.1227-.2677-.2714-.2402z"/></g></svg>