<svg height="758.99463" width="1000" xmlns="http://www.w3.org/2000/svg"><path d="m1000 325.90288h-363.73536v-93.09988h363.73536z" fill="#e669a2"/><path d="m952.75557 325.90288h-316.49093v-232.851606h316.49093z" fill="#f3be26"/><path d="m821.99817 325.90288h-185.73353v-325.90284138h185.73353z" fill="#ee9c34"/><path d="m858.53875 325.90288h-222.27411v-289.537091h222.27411z" fill="#f3bc87"/><path d="m636.21316 36.420649v289.452701h185.76453v-289.452701z" fill="#e3721c"/><path d="m450.0164 325.90296h186.24824v46.55479h-186.24824z" fill="#ad1b02"/><path d="m636.21316 92.99991v232.87344h222.43178v-232.87344z" fill="#e88d14"/><path d="m636.21316 92.99991v232.87344h185.76453v-232.87344z" fill="#d85604"/><path d="m752.41366 325.90288h-116.14902v-139.76144h116.14902z" fill="#c14303"/><path d="m636.21316 232.86967v93.00368h316.6496v-93.00368z" fill="#db4e18"/><path d="m636.21316 232.86967v93.00368h222.43178v-93.00368z" fill="#d1390d"/><path d="m636.21316 232.86967v93.00368h185.76453v-93.00368z" fill="#c22303"/><path d="m636.21316 232.86967v93.00368h116.31531v-93.00368z" fill="#ad1b02"/><g transform="translate(-128.49892 323.79178)"><path d="m805.25948 177.45637c-31.69014 5.6338-48.59155 29.57747-48.59155 71.12676 0 42.25352 22.53522 70.42254 55.63381 70.42254 16.19718 0 30.28169-5.63381 59.85915-20.42254v34.50704c-35.91549 16.90141-57.04225 21.12676-85.21127 21.12676-31.69014 0-54.22535-7.74647-71.83098-26.76056-18.30986-18.30986-28.16902-42.25352-28.16902-69.71831 0-59.85915 45.07043-101.40845 110.56338-101.40845 42.95775 0 73.23944 20.42254 73.23944 49.29578 0 19.01408-14.08451 32.39436-34.50704 32.39436-10.56338 0-19.01409-3.52113-30.98592-9.85915"/><path d="m646.80878 257.73806c28.87324-35.91549 39.43662-50.70422 39.43662-68.30986 0-17.60563-14.08451-33.09859-33.80282-33.09859-11.2676 0-21.83098 6.33803-26.76056 11.97183v73.94366c-47.1831 63.38029-47.1831 63.38029-47.1831 63.38029 0-143.66198 0-143.66198 0-143.66198-45.07042 0-45.07042 0-45.07042 0-74.64789 123.23944-74.64789 123.23944-74.64789 123.23944 0-123.23944 0-123.23944 0-123.23944-25.35211 0-25.35211 0-25.35211 0-68.30986 15.49296-68.30986 15.49296-68.30986 15.49296v17.60563c37.32394 3.52113 37.32394 3.52113 37.32394 3.52113v152.8169h47.1831c71.83099-118.30986 71.83099-118.30986 71.83099-118.30986v118.30986h52.8169"/><path d="m222.16089 327.45637h10.56338c38.02817 0 59.15493-23.23944 59.15493-69.71831 0-38.73239-16.90141-59.85915-48.59155-59.85915-4.22535 0-10.56338.70422-21.12676 2.8169zm0 83.09859c30.98592 7.04226 30.98592 7.04226 30.98592 7.04226v17.60563c-121.83099 0-121.83099 0-121.83099 0 0-17.60563 0-17.60563 0-17.60563 28.16902-7.04226 28.16902-7.04226 28.16902-7.04226 0-212.67605 0-212.67605 0-212.67605-30.98592 0-30.98592 0-30.98592 0 0-17.60564 0-17.60564 0-17.60564 73.94366-22.53521 73.94366-22.53521 73.94366-22.53521h19.71831v25.35211c34.50704-21.12676 46.47888-24.64788 64.78873-24.64788 40.84507 0 71.83099 38.02817 71.83099 90.84507 0 60.56338-41.5493 102.11267-104.92958 102.11267-7.04225 0-19.01408-.70422-31.69014-1.40845"/></g></svg>