<?xml version="1.0" encoding="UTF-8"?>
<svg version="1.1" xmlns="http://www.w3.org/2000/svg" width="770" height="490">
<path d="M0 0 C3.89534973 41.34525394 7.5497572 82.70995776 11.15010059 124.08174717 C11.74775707 130.94781891 12.34748911 137.81370825 12.94767362 144.67955941 C13.6050772 152.20057952 14.2610277 159.72172569 14.91632652 167.24292946 C15.19215176 170.40837666 15.46849836 173.57377769 15.74527931 176.73914146 C16.06744569 180.42422736 16.38834711 184.10942122 16.70824814 187.79470444 C16.88148254 189.78683125 17.05599672 191.77884665 17.23054504 193.77085876 C17.38378235 195.54055023 17.38378235 195.54055023 17.54011536 197.34599304 C17.62948773 198.3718687 17.71886011 199.39774435 17.81094074 200.45470715 C18 203 18 203 18 206 C5.0349054 207.50521886 -7.93978273 208.75163184 -20.9432373 209.87295532 C-22.99913908 210.05186424 -25.05502435 210.23096296 -27.11089468 210.4102329 C-32.70997701 210.89792011 -38.30928796 211.3829352 -43.90864301 211.8674798 C-49.96581777 212.39212279 -56.02277353 212.91928317 -62.07975769 213.44612122 C-72.55771145 214.35714621 -83.03580126 215.26659385 -93.51399231 216.1748848 C-104.49607768 217.12685699 -115.47809043 218.07965993 -126.46000671 219.03358078 C-127.14472081 219.09305621 -127.8294349 219.15253164 -128.5348979 219.21380936 C-131.3145712 219.455259 -134.09424399 219.69671446 -136.87391611 219.93817766 C-162.90274417 222.19923388 -188.93177209 224.45798142 -214.96090468 226.71552901 C-238.09108781 228.72165621 -261.22114204 230.72926267 -284.35107422 232.73828125 C-285.0876983 232.8022626 -285.82432238 232.86624395 -286.5832684 232.93216413 C-288.81177269 233.12572656 -291.04027694 233.31928942 -293.26878119 233.51285231 C-296.22865384 233.76993998 -299.18852657 234.02702677 -302.14839935 234.28411293 C-302.87874128 234.34754869 -303.60908322 234.41098444 -304.36155672 234.4763425 C-327.15674976 236.4562645 -349.95205122 238.4349375 -372.7473717 240.41339157 C-380.30995261 241.06976469 -387.87252656 241.72621778 -395.43507957 242.38291216 C-396.45718226 242.47166626 -396.45718226 242.47166626 -397.49993348 242.56221338 C-398.17995061 242.62126267 -398.85996775 242.68031197 -399.56059146 242.74115063 C-412.63308912 243.87630041 -425.70563476 245.01089482 -438.77828145 246.14432742 C-444.75322777 246.66238149 -450.72815003 247.18070913 -456.70300865 247.69977379 C-462.16354551 248.17414631 -467.62415023 248.64772928 -473.08481222 249.12065916 C-475.06817201 249.2925722 -477.05150627 249.46478001 -479.03481334 249.63730009 C-481.7143363 249.87033676 -484.39394762 250.10232892 -487.07358551 250.33403969 C-487.85733722 250.40245485 -488.64108893 250.47087001 -489.4485907 250.54135835 C-494.7716849 251 -494.7716849 251 -497 251 C-498.51795759 247.96408481 -498.4843234 244.7187314 -498.76564026 241.37913513 C-498.83591507 240.58340011 -498.90618989 239.78766509 -498.97859424 238.96781689 C-499.21434024 236.2867332 -499.44418527 233.60517594 -499.67407227 230.92358398 C-499.84136367 229.00685186 -500.00900501 227.09015026 -500.17697144 225.17347717 C-500.6332227 219.95447855 -501.08426218 214.73504135 -501.53418851 209.51549411 C-502.00549784 204.05552938 -502.48083647 198.59591523 -502.95555115 193.13624573 C-503.75284603 183.9588403 -504.54670412 174.78114226 -505.33862305 165.60327148 C-506.25348444 155.00114053 -507.17405037 144.39951653 -508.09764248 133.79814285 C-508.98591851 123.60029816 -509.86981722 113.40207839 -510.75184441 103.20369148 C-511.12715622 98.86527752 -511.50404946 94.52700527 -511.88223457 90.18884087 C-512.32816351 85.07154844 -512.77026653 79.95393929 -513.20946884 74.83606529 C-513.37099135 72.96109821 -513.5338203 71.08624312 -513.69807625 69.21151352 C-513.92276273 66.64455426 -514.14263332 64.07722477 -514.36134338 61.50975037 C-514.42680739 60.77470431 -514.49227139 60.03965826 -514.55971915 59.28233808 C-514.86890571 55.59204697 -515.03076388 51.94411245 -515.01641887 48.23982197 C-515.0140484 47.44207267 -515.01167792 46.64432338 -515.00923562 45.82239986 C-515.00618786 45.22100791 -515.00314011 44.61961595 -515 44 C-466.88675427 39.80284268 -418.77342753 35.60661551 -370.65965271 31.41552734 C-369.94756803 31.35349889 -369.23548334 31.29147044 -368.50182034 31.22756234 C-353.02634851 29.87952687 -337.55086162 28.53166438 -322.0753592 27.18398011 C-314.48619044 26.52307621 -306.89702501 25.86213409 -299.30786133 25.20117188 C-298.55264776 25.1353988 -297.79743419 25.06962572 -297.01933535 25.00185952 C-272.54014278 22.86989903 -248.0611711 20.73541433 -223.58231269 18.59962067 C-198.42737176 16.40485188 -173.27221018 14.21262953 -148.11676811 12.02361158 C-144.56384009 11.71443581 -141.0109146 11.40523092 -137.45799065 11.0960083 C-136.75872331 11.03514968 -136.05945597 10.97429106 -135.33899872 10.91158824 C-124.08217076 9.93180877 -112.82557864 8.94934476 -101.56907239 7.96587688 C-90.25282785 6.97724745 -78.93633501 5.99150905 -67.61959804 5.00852919 C-61.48782677 4.47583381 -55.35617309 3.94186716 -49.22480774 3.40451813 C-43.61229062 2.91266856 -37.99947399 2.42439906 -32.38639688 1.9389832 C-30.3551761 1.76268634 -28.32406911 1.58507242 -26.29309005 1.4060123 C-23.53229814 1.1628024 -20.77113121 0.92439469 -18.00981998 0.68716431 C-16.82758648 0.58127751 -16.82758648 0.58127751 -15.62146947 0.47325158 C-10.39724582 0.03129545 -5.24317509 -0.05719817 0 0 Z " fill="#FA6D6B" transform="translate(751,2)"/>
<path d="M0 0 C170.61 0 341.22 0 517 0 C517 68.31 517 136.62 517 207 C346.39 207 175.78 207 0 207 C0 138.69 0 70.38 0 0 Z " fill="#FA6D6C" transform="translate(3,280)"/>
</svg>
