<svg id="eyed" xmlns="http://www.w3.org/2000/svg" viewBox="0 0 309.09 110.97"><title>Mortar_dbl_tight</title><rect x="43.75" y="9.94" width="100.35" height="43.15" transform="translate(-2.39 8.31) rotate(-5)" style="fill:#1f1f1f"/><rect x="0.6" y="65.41" width="100.35" height="43.15" style="fill:#1f1f1f"/><path d="M306,77.43a12.89,12.89,0,0,0-2.29-.31c-4,0-6.9,2-8.81,6V78h-6.29v30.58h6.29V92.48c0-5.43,3.2-9.44,7.64-9.44a8.4,8.4,0,0,1,2.41.37ZM264.5,104.19c-3,0-5.11-1.79-5.11-4.56s2-4.5,5.91-5.18L273.57,93v.86c0,5.92-3.64,10.3-9.07,10.3m17.2,4.38a14.54,14.54,0,0,1-1.85-7.65V87.48c0-6.72-4.37-10.36-12.7-10.36a14,14,0,0,0-8.93,2.66,7.82,7.82,0,0,0-3.4,6.41,6.71,6.71,0,0,0,.5,2.46l5.61-1.91a5,5,0,0,1-.13-.92c0-2.28,2.22-4,6.35-4s6.42,1.79,6.42,5.3v1.3L263.89,90c-6.35,1-10.79,4.31-10.79,10s4.25,9.43,10.42,9.43a10.53,10.53,0,0,0,10.17-6.23,8.46,8.46,0,0,0,1.73,5.37ZM235.28,83v17.33c0,6,2.89,9.06,8.75,9.06a12.9,12.9,0,0,0,4.56-.74l-.55-5.3a7.86,7.86,0,0,1-2.28.37c-2.78,0-4.2-1.48-4.2-4.5V83h6.85V78h-6.85V69.73h-6.28V78h-4.94V83Zm-8.73-5.61a12.89,12.89,0,0,0-2.29-.31c-4,0-6.9,2-8.81,6V78h-6.29v30.58h6.29V92.48c0-5.43,3.2-9.44,7.64-9.44a8.4,8.4,0,0,1,2.41.37ZM179,100.74a11.25,11.25,0,0,1,0-14.92,9.6,9.6,0,0,1,7-2.9,9.72,9.72,0,0,1,7.09,2.9,11,11,0,0,1,0,14.92,9.71,9.71,0,0,1-7.09,2.89,9.59,9.59,0,0,1-7-2.89m7.09,8.69a16.16,16.16,0,1,0,0-32.31,16.7,16.7,0,0,0-11.46,4.32c-3.27,2.9-4.87,6.84-4.87,11.84s1.6,8.94,4.87,11.83a16.7,16.7,0,0,0,11.46,4.32m-60.51-.86V78.66q.28,1,2.22,6.11l9.86,23.8H144l9.86-23.8,2.22-6.11v29.91h6.41V65.41h-7.09L140.83,102,126.22,65.41h-7.09v43.16Z" style="fill:#1f1f1f"/></svg>