<?xml version="1.0" encoding="utf-8"?>
<!-- Generator: Adobe Illustrator 25.3.1, SVG Export Plug-In . SVG Version: 6.00 Build 0)  -->
<svg version="1.1" id="Layer_1" xmlns="http://www.w3.org/2000/svg" xmlns:xlink="http://www.w3.org/1999/xlink" x="0px" y="0px"
	 viewBox="0 0 350 106.28" style="enable-background:new 0 0 350 106.28;" xml:space="preserve">
<style type="text/css">
	.st0{fill:#0A2639;}
	.st1{fill:url(#SVGID_1_);}
	.st2{fill:url(#SVGID_2_);}
</style>
<g>
	<g>
		<g>
			<path class="st0" d="M48.62,29.06C52.88,33.43,55,39.34,55,47.01v36.26H39.77V48.9c0-7.91-4.61-12.16-11.69-12.16
				c-7.91,0-12.99,4.84-12.99,14.64v31.89H-0.15l0-82.66h15.23v30.23c3.66-5.55,9.57-8.27,17.6-8.27
				C39.18,22.57,44.49,24.69,48.62,29.06z"/>
		</g>
		<g>
			<path class="st0" d="M269.64,31.66c5.67,6.02,8.5,13.34,8.5,22.08c0,8.74-2.83,16.18-8.5,22.2c-5.55,6.02-12.4,8.98-20.31,8.98
				c-8.27,0-14.64-2.83-19.13-8.62v30.59h-15.23V24.22h15.23v6.97c4.49-5.79,10.86-8.62,19.13-8.62
				C257.24,22.57,264.09,25.64,269.64,31.66z M246.49,70.39c4.72,0,8.62-1.54,11.69-4.61c3.19-3.19,4.72-7.2,4.72-12.05
				s-1.54-8.86-4.72-11.93c-3.07-3.19-6.97-4.72-11.69-4.72c-4.72,0-8.62,1.53-11.69,4.72c-3.07,3.07-4.61,7.09-4.61,11.93
				s1.54,8.86,4.61,12.05C237.87,68.86,241.77,70.39,246.49,70.39z"/>
			<path class="st0" d="M334.62,0.6h15.23v82.66h-15.23V76.3c-4.49,5.79-10.86,8.62-19.13,8.62c-7.91,0-14.76-2.95-20.43-8.98
				c-5.55-6.02-8.38-13.46-8.38-22.2c0-8.74,2.83-16.06,8.38-22.08c5.67-6.02,12.52-9.09,20.43-9.09c8.27,0,14.64,2.83,19.13,8.62
				V0.6z M318.32,70.39c4.72,0,8.62-1.54,11.69-4.61c3.07-3.19,4.61-7.2,4.61-12.05s-1.54-8.86-4.61-11.93
				c-3.07-3.19-6.97-4.72-11.69-4.72c-4.72,0-8.62,1.53-11.81,4.72c-3.07,3.07-4.61,7.09-4.61,11.93s1.54,8.86,4.61,12.05
				C309.7,68.86,313.6,70.39,318.32,70.39z"/>
		</g>
		<linearGradient id="SVGID_1_" gradientUnits="userSpaceOnUse" x1="60.5127" y1="53.7815" x2="177.3896" y2="53.7815">
			<stop  offset="0" style="stop-color:#E87D39"/>
			<stop  offset="1" style="stop-color:#FFF33B"/>
		</linearGradient>
		<path class="st1" d="M91.72,22.57c-17.24,0-31.21,13.97-31.21,31.21c0,17.24,13.97,31.21,31.21,31.21h85.67V22.57H91.72z"/>
		<circle class="st0" cx="177.39" cy="53.78" r="31.21"/>
		<path class="st0" d="M288.78,24.29l4.9-13.45c1.44-3.96-0.6-8.33-4.56-9.77s-8.33,0.6-9.77,4.56l-4.9,13.45
			c-1.44,3.96,0.6,8.33,4.56,9.77S287.34,28.24,288.78,24.29z"/>
		<linearGradient id="SVGID_2_" gradientUnits="userSpaceOnUse" x1="60.5127" y1="53.7229" x2="122.9313" y2="53.7229">
			<stop  offset="0" style="stop-color:#FFF33B;stop-opacity:0.4"/>
			<stop  offset="1" style="stop-color:#E87D39;stop-opacity:0.4"/>
		</linearGradient>
		<circle class="st2" cx="91.72" cy="53.72" r="31.21"/>
	</g>
</g>
</svg>
