<?xml version="1.0" encoding="UTF-8"?>
<svg version="1.1" xmlns="http://www.w3.org/2000/svg" width="252" height="98">
<path d="M0 0 C0.77988281 -0.04898437 1.55976563 -0.09796875 2.36328125 -0.1484375 C5.77630416 0.62020968 6.65017758 2.58764128 8.6875 5.375 C9.87918054 7.30515374 11.03108203 9.26026438 12.1484375 11.234375 C12.78523438 12.35070313 13.42203125 13.46703125 14.078125 14.6171875 C14.73999298 15.7862265 15.40144928 16.95549867 16.0625 18.125 C22.24931211 29.65876076 22.24931211 29.65876076 29.6875 40.375 C30.3475 40.375 31.0075 40.375 31.6875 40.375 C32.1407666 39.57916504 32.5940332 38.78333008 33.06103516 37.96337891 C34.77106885 34.96221093 36.48212857 31.96163258 38.19384766 28.96142578 C38.92927461 27.67194081 39.66431216 26.38223366 40.39892578 25.09228516 C52.87409747 3.18840253 52.87409747 3.18840253 55.6875 0.375 C57.81640625 0.14453125 57.81640625 0.14453125 60.25 0.1875 C61.45849609 0.19716797 61.45849609 0.19716797 62.69140625 0.20703125 C64.6875 0.375 64.6875 0.375 65.6875 1.375 C66.04075364 5.83088465 65.50040369 8.42887921 63.1875 12.2265625 C62.63795654 13.14646973 62.08841309 14.06637695 61.5222168 15.01416016 C60.61403198 16.49215088 60.61403198 16.49215088 59.6875 18 C58.40069342 20.14484408 57.11560799 22.29072148 55.83203125 24.4375 C55.15479004 25.56414063 54.47754883 26.69078125 53.77978516 27.8515625 C50.56101153 33.24159213 47.49310706 38.71781388 44.40432739 44.18292236 C24.6508274 79.05389087 24.6508274 79.05389087 14.6875 82.375 C13.07236949 82.46778335 11.45372945 82.50568503 9.8359375 82.5078125 C8.90265625 82.50910156 7.969375 82.51039062 7.0078125 82.51171875 C5.54988281 82.50591797 5.54988281 82.50591797 4.0625 82.5 C3.0828125 82.50386719 2.103125 82.50773437 1.09375 82.51171875 C0.16304687 82.51042969 -0.76765625 82.50914063 -1.7265625 82.5078125 C-3.00974365 82.50612061 -3.00974365 82.50612061 -4.31884766 82.50439453 C-6.3125 82.375 -6.3125 82.375 -7.3125 81.375 C-7.58564815 75.63888889 -7.58564815 75.63888889 -7.3125 73.375 C-3.86713604 69.92963604 1.20625686 71.01589659 5.890625 70.9140625 C11.12927581 70.17030343 14.11468404 68.12257329 17.62109375 64.2265625 C18.11738281 63.49179688 18.61367187 62.75703125 19.125 62 C19.63933594 61.27039063 20.15367187 60.54078125 20.68359375 59.7890625 C22.03369806 56.54250816 21.49775761 54.78009725 20.6875 51.375 C19.28355127 48.41876888 19.28355127 48.41876888 17.44140625 45.48046875 C16.77302734 44.36760498 16.10464844 43.25474121 15.41601562 42.1081543 C15.06192627 41.52867035 14.70783691 40.9491864 14.34301758 40.35214233 C13.24073327 38.5473272 12.15108482 36.7354186 11.06445312 34.92114258 C7.87567426 29.60486573 4.65109658 24.31111287 1.40234375 19.03125 C0.93562256 18.26272705 0.46890137 17.4942041 -0.01196289 16.70239258 C-0.85215284 15.31995126 -1.70349143 13.94419681 -2.56811523 12.5769043 C-4.92258505 8.69318451 -5.85576817 5.91808011 -5.3125 1.375 C-3.74331508 -0.19418492 -2.17164841 0.09241057 0 0 Z " fill="#000000" transform="translate(185.3125,15.625)"/>
<path d="M0 0 C1.81242052 -0.02687279 3.62495233 -0.04633715 5.4375 -0.0625 C6.44683594 -0.07410156 7.45617187 -0.08570312 8.49609375 -0.09765625 C11 0 11 0 12 1 C12.15786308 2.85174706 12.25107356 4.7090911 12.31640625 6.56640625 C12.37924805 8.2534668 12.37924805 8.2534668 12.44335938 9.97460938 C12.48267578 11.15861328 12.52199219 12.34261719 12.5625 13.5625 C12.60568359 14.75037109 12.64886719 15.93824219 12.69335938 17.16210938 C12.79983546 20.10794784 12.90184841 23.0538743 13 26 C13.58587891 25.44570313 14.17175781 24.89140625 14.77539062 24.3203125 C15.95391602 23.23363281 15.95391602 23.23363281 17.15625 22.125 C17.92775391 21.40570312 18.69925781 20.68640625 19.49414062 19.9453125 C26.53715393 14.4777823 35.728687 14.31168516 44.2421875 15.24609375 C51.72070386 16.50113888 57.66653297 20.12804058 62.4375 26 C65.5658659 32.00646253 66.29204322 37.00143521 66.23046875 43.64453125 C66.23001053 44.45492355 66.22955231 45.26531586 66.2290802 46.1002655 C66.2260735 47.80212887 66.21823495 49.50398988 66.20581055 51.20581055 C66.18743643 53.82154982 66.18530188 56.43693699 66.18554688 59.05273438 C66.18063553 60.70833642 66.1748089 62.36393605 66.16796875 64.01953125 C66.16685593 64.80487747 66.1657431 65.59022369 66.16459656 66.39936829 C66.11608788 71.88391212 66.11608788 71.88391212 65 73 C63.35769636 73.1245486 61.70947724 73.17568524 60.0625 73.1875 C59.16660156 73.20167969 58.27070312 73.21585937 57.34765625 73.23046875 C55 73 55 73 53 71 C52.72875977 68.03833008 52.72875977 68.03833008 52.69140625 64.26953125 C52.66622494 62.89517844 52.64082727 61.52082958 52.61523438 60.14648438 C52.58662052 57.98528266 52.56260188 55.8241504 52.54370117 53.6628418 C52.52185971 51.57302182 52.48238765 49.48405136 52.44140625 47.39453125 C52.42795166 46.14518799 52.41449707 44.89584473 52.40063477 43.60864258 C51.84307629 38.58653912 50.34224986 34.71252568 47.1875 30.6875 C41.76372169 26.50344245 35.58876273 26.34825222 29 27 C23.40626693 28.24521362 19.61893298 30.45048425 16 35 C12.0107772 41.85678149 12.48148703 49.05035597 12.375 56.8125 C12.32691484 59.4442133 12.26968273 62.07551216 12.2109375 64.70703125 C12.19337402 65.8669458 12.17581055 67.02686035 12.15771484 68.22192383 C12 71 12 71 11 73 C9.35425434 73.02688151 7.70838587 73.04634123 6.0625 73.0625 C5.14597656 73.07410156 4.22945313 73.08570312 3.28515625 73.09765625 C1 73 1 73 0 72 C-0.09436529 69.76070114 -0.11742327 67.5183825 -0.11352539 65.27709961 C-0.11367142 64.5746965 -0.11381744 63.8722934 -0.1139679 63.14860535 C-0.11326872 60.81648722 -0.10547617 58.484448 -0.09765625 56.15234375 C-0.09579208 54.53951562 -0.09436818 52.92668693 -0.09336853 51.31385803 C-0.08954323 47.06084643 -0.07971285 42.80786876 -0.06866455 38.55487061 C-0.05845069 34.2182257 -0.05387096 29.88157533 -0.04882812 25.54492188 C-0.03809059 17.02993231 -0.02101403 8.51497037 0 0 Z " fill="#000000" transform="translate(0,1)"/>
<path d="M0 0 C6.61568839 0.36555691 11.05120366 3.01048616 16.625 6.4375 C18.28205876 7.43917407 19.94086301 8.43796738 21.6015625 9.43359375 C22.32682129 9.87759521 23.05208008 10.32159668 23.79931641 10.77905273 C29.86365764 14.14357132 35.14226265 15.20254162 42 14 C50.46956286 10.90518532 58.47492216 6.00205145 65.88671875 0.93359375 C68.6382146 -0.28194693 70.17328268 0.11875763 73 1 C74.56941198 2.56941198 74.2449847 4.14134994 74.3125 6.3125 C74.36857422 7.48232422 74.36857422 7.48232422 74.42578125 8.67578125 C73.81803143 11.99331467 72.63729618 12.88526406 70 15 C67.17128223 16.81532455 64.25921265 18.44749808 61.3125 20.0625 C60.54744141 20.49626953 59.78238281 20.93003906 58.99414062 21.37695312 C48.72444779 27.06118917 39.11183963 29.87284167 27.3203125 27.44921875 C18.22412999 24.53235779 6.81769798 18.81769798 0 12 C-0.1953125 9.1796875 -0.1953125 9.1796875 -0.125 5.875 C-0.10695313 4.77929688 -0.08890625 3.68359375 -0.0703125 2.5546875 C-0.04710938 1.71164063 -0.02390625 0.86859375 0 0 Z " fill="#000000" transform="translate(75,28)"/>
<path d="M0 0 C1.80964689 1.26419602 3.27295028 2.51860567 4.71069336 4.19506836 C5.00366211 6.67553711 5.00366211 6.67553711 4.89819336 9.38256836 C4.85758789 10.73415039 4.85758789 10.73415039 4.81616211 12.11303711 C4.78135742 12.80010742 4.74655273 13.48717773 4.71069336 14.19506836 C3.03637695 15.35620117 3.03637695 15.35620117 0.71069336 16.19506836 C-1.75952148 15.26049805 -1.75952148 15.26049805 -4.50024414 13.61694336 C-5.49797852 13.03299805 -6.49571289 12.44905273 -7.52368164 11.84741211 C-9.07829102 10.90575195 -9.07829102 10.90575195 -10.66430664 9.94506836 C-12.71098432 8.72680784 -14.76038746 7.51311218 -16.81274414 6.30444336 C-17.71943848 5.75755859 -18.62613281 5.21067383 -19.56030273 4.6472168 C-25.88604557 1.28118366 -32.30760072 -0.2434475 -39.30493164 1.77709961 C-46.69121968 4.86411694 -57.6152899 9.52105162 -63.28930664 15.19506836 C-65.78930664 15.32006836 -65.78930664 15.32006836 -68.28930664 15.19506836 C-70.01081816 13.47355684 -69.74272895 11.36199552 -69.91430664 9.00756836 C-69.82778595 3.84294847 -69.82778595 3.84294847 -67.80883789 1.41381836 C-65.38550356 -0.2229553 -62.91019229 -1.50483442 -60.28930664 -2.80493164 C-59.06722282 -3.48780133 -57.84867048 -4.17701601 -56.63305664 -4.87133789 C-55.33222537 -5.60143779 -54.03013778 -6.32930378 -52.72680664 -7.05493164 C-52.11442139 -7.3967749 -51.50203613 -7.73861816 -50.87109375 -8.09082031 C-32.19277572 -18.05971116 -16.53346615 -10.07216095 0 0 Z " fill="#000000" transform="translate(144.289306640625,69.804931640625)"/>
<path d="M0 0 C1.50046875 0.00386719 1.50046875 0.00386719 3.03125 0.0078125 C4.0315625 0.00523438 5.031875 0.00265625 6.0625 0 C8.53125 0.1328125 8.53125 0.1328125 9.53125 1.1328125 C9.64378865 2.80434426 9.68802597 4.48053014 9.70483398 6.15576172 C9.71832382 7.22712372 9.73181366 8.29848572 9.74571228 9.40231323 C9.75615067 10.56892487 9.76658905 11.7355365 9.77734375 12.9375 C9.81028041 15.38151402 9.84349209 17.82552435 9.87695312 20.26953125 C9.92441899 24.14304059 9.96883831 28.01653475 10.00805664 31.89013672 C10.04767667 35.61441939 10.09924734 39.33838856 10.15234375 43.0625 C10.1607579 44.22506317 10.16917206 45.38762634 10.17784119 46.5854187 C10.19448318 47.66308502 10.21112518 48.74075134 10.22827148 49.85107422 C10.23857895 50.80070038 10.24888641 51.75032654 10.25950623 52.72872925 C10.37507239 55.39442578 10.37507239 55.39442578 12.53125 58.1328125 C14.49877828 59.19527777 16.49712579 60.20419058 18.53125 61.1328125 C18.53125 64.7628125 18.53125 68.3928125 18.53125 72.1328125 C14.10307347 73.647715 11.48486649 72.94455199 7.40625 71.0078125 C1.59704024 67.85025404 -1.33859696 64.38679255 -3.46875 58.1328125 C-3.71598816 55.37432861 -3.71598816 55.37432861 -3.71166992 52.34863281 C-3.71474655 51.2110553 -3.71782318 50.07347778 -3.72099304 48.90142822 C-3.71380753 47.68356628 -3.70662201 46.46570435 -3.69921875 45.2109375 C-3.69876053 43.95520935 -3.69830231 42.6994812 -3.6978302 41.40570068 C-3.69481239 38.75616793 -3.68801806 36.10698572 -3.67456055 33.45751953 C-3.65750183 30.05548096 -3.65374846 26.65359077 -3.65450573 23.25151443 C-3.65416933 20.00880736 -3.64534002 16.76613162 -3.63671875 13.5234375 C-3.63560593 12.29747864 -3.6344931 11.07151978 -3.63334656 9.80841064 C-3.62696671 8.68344177 -3.62058685 7.5584729 -3.61401367 6.39941406 C-3.61020187 5.40411682 -3.60639008 4.40881958 -3.60246277 3.38336182 C-3.4139883 0.21110618 -3.18621786 0.17141045 0 0 Z " fill="#000000" transform="translate(160.46875,0.8671875)"/>
</svg>
